<?xml version="1.0" standalone="no"?>
<!DOCTYPE svg PUBLIC "-//W3C//DTD SVG 1.1//EN" "http://www.w3.org/Graphics/SVG/1.1/DTD/svg11.dtd" >
<svg xmlns="http://www.w3.org/2000/svg">
<metadata></metadata>
<defs>
<font id="old_standard_ttregular" horiz-adv-x="1187" >
<font-face units-per-em="2048" ascent="1561" descent="-487" />
<missing-glyph horiz-adv-x="573" />
<glyph horiz-adv-x="2048" />
<glyph horiz-adv-x="2048" />
<glyph unicode="&#xd;" horiz-adv-x="681" />
<glyph unicode=" "  horiz-adv-x="573" />
<glyph unicode="&#x09;" horiz-adv-x="573" />
<glyph unicode="&#xa0;" horiz-adv-x="573" />
<glyph unicode="!" horiz-adv-x="573" d="M160 102q0 55 35.5 91t91.5 36q55 0 91 -35.5t36 -91.5q0 -55 -36 -91t-91 -36t-91 36t-36 91zM160 1274q0 68 34.5 107.5t92.5 39.5q57 0 92 -40t35 -107q0 -100 -32 -282.5t-38 -262.5l-33 -410h-49l-33 410q-6 80 -37.5 262.5t-31.5 282.5z" />
<glyph unicode="&#x22;" horiz-adv-x="806" d="M176 1401q0 94 70 94t69 -94q0 -8 -4 -37l-41 -299h-49l-41 299q-4 29 -4 37zM491 1401q0 94 70 94t69 -94q0 -8 -4 -37l-41 -299h-49l-41 299q-4 29 -4 37z" />
<glyph unicode="#" horiz-adv-x="1400" d="M166 401v82h262l74 439h-336v82h348l59 397h91l-62 -397h299l62 397h90l-62 -397h258v-82h-268l-70 -439h332v-82h-348l-61 -401h-91l62 401h-297l-64 -401h-90l64 401h-252zM518 483h303l70 439h-299z" />
<glyph unicode="$" d="M127 338q0 72 49 121q37 37 90 37q33 0 62 -25q25 -25 24 -65q0 -35 -14 -61t-59 -75q-25 -25 -25 -67q0 -53 55.5 -97.5t157.5 -62.5v639l-12 4q-279 111 -279 375q0 129 75 227t216 131v133h65v-122q41 4 66 4q33 0 49 -2v120h66v-129q150 -27 232.5 -119t82.5 -206 q0 -92 -29 -140q-33 -53 -96 -53q-39 0 -67 29q-18 23 -19 51q0 39 25 76q12 16 33.5 35.5t27.5 29.5q16 25 17 64q0 47 -52.5 97t-154.5 71v-582l41 -16q129 -51 199.5 -152.5t70.5 -224.5q0 -147 -81 -259t-230 -144v-152h-66v141q-16 -2 -49 -2q-45 0 -66 2v-141h-65v149 q-160 29 -250 122.5t-90 238.5zM274 1106q0 -88 38 -137t143 -90l12 -5v478q-98 -29 -145.5 -97.5t-47.5 -148.5zM532 35q20 -2 66 -2q33 0 49 2v575l-115 45v-620zM532 848l115 -45v563q-16 2 -49 2q-25 0 -66 -4v-516zM713 47q106 29 163.5 105.5t57.5 164.5 q0 106 -43 158.5t-137 91.5l-41 17v-537z" />
<glyph unicode="%" horiz-adv-x="1761" d="M197 1065q0 158 77.5 263.5t196.5 105.5t199 -105.5t80 -263.5t-80 -261.5t-199 -103.5t-196.5 103.5t-77.5 261.5zM328 1065q0 -74 4 -123t17 -99t44 -76t78 -26q61 0 96 49.5t43 113t8 161.5t-8 162.5t-43 115t-96 50.5q-47 0 -78 -26t-44 -77t-17 -101t-4 -124z M406 -37l872 1475h74l-873 -1475h-73zM1012 332q0 158 77.5 263t196.5 105t199 -105.5t80 -262.5q0 -158 -80 -261.5t-199 -103.5t-196.5 103.5t-77.5 261.5zM1143 332q0 -74 4 -123t17.5 -99.5t44 -76t77.5 -25.5q61 0 96 49t43.5 112.5t8.5 162.5q0 98 -8.5 162.5 t-43 114.5t-96.5 50q-47 0 -77.5 -25.5t-44 -76.5t-17.5 -101t-4 -124z" />
<glyph unicode="&#x26;" horiz-adv-x="1609" d="M111 297q0 188 290 412l62 47l-21 30q-106 162 -106 299q0 154 94 254.5t221 100.5q119 0 179.5 -75t60.5 -177q0 -115 -66.5 -201t-187.5 -182l352 -500l8 10q72 88 119 190.5t47 162.5q0 37 -23.5 59.5t-56.5 22.5h-92v65h508v-65h-63q-37 0 -59.5 -5.5t-56.5 -32 t-60 -79.5q-125 -252 -230 -385q72 -100 122 -147.5t99 -47.5q76 0 121 43t78 113l33 -16q-104 -229 -279 -230q-143 0 -291 166q-188 -166 -403 -166q-186 0 -292.5 84t-106.5 250zM307 313q0 -139 72 -213.5t156 -74.5q172 0 335 153l-36 47l-330 473l-21 -16 q-176 -142 -176 -369zM467 1147q0 -115 108 -256l21 -27q61 47 98 80t80 105.5t43 150.5q0 72 -47 125t-117 53q-84 0 -135 -64.5t-51 -166.5z" />
<glyph unicode="'" horiz-adv-x="491" d="M176 1401q0 94 70 94t69 -94q0 -8 -4 -37l-41 -299h-49l-41 299q-4 29 -4 37z" />
<glyph unicode="(" horiz-adv-x="757" d="M201 545q0 289 109.5 535.5t291.5 414.5l62 -49q-360 -379 -361 -901q0 -522 361 -901l-62 -50q-182 168 -291.5 415t-109.5 536z" />
<glyph unicode=")" horiz-adv-x="757" d="M98 -356q360 379 361 901q0 522 -361 901l62 49q182 -168 291.5 -414.5t109.5 -535.5t-109.5 -536t-291.5 -415z" />
<glyph unicode="*" horiz-adv-x="1028" d="M147 842q0 78 138 96q76 10 151 53l10 8q10 6 11 15q0 8 -11 14l-10 8q-76 43 -151 54q-137 18 -138 96q0 29 20.5 52.5t55.5 23.5q55 0 115 -80q43 -55 115 -101q18 -12 28 -12q16 0 17 31q0 86 -29 157q-25 59 -25 89q0 39 20.5 63.5t57.5 24.5t57.5 -25t20.5 -63 q0 -29 -25 -89q-29 -72 -28 -157q0 -31 16 -31q10 0 29 12q72 45 115 101q59 80 114 80q35 0 55.5 -24t20.5 -52q0 -78 -137 -96q-76 -10 -152 -54l-10 -8q-10 -6 -10 -14t10 -15l10 -8q76 -43 152 -53q137 -18 137 -96q0 -29 -20.5 -52.5t-55.5 -23.5q-55 0 -114 80 q-43 55 -115 100q-18 12 -29 12q-16 0 -16 -30q0 -86 28 -158q25 -59 25 -88q0 -39 -20.5 -63.5t-57.5 -24.5t-57.5 24.5t-20.5 63.5q0 29 25 88q29 72 29 158q0 31 -17 30q-10 0 -28 -12q-72 -45 -115 -100q-59 -80 -115 -80q-35 0 -55.5 23.5t-20.5 52.5z" />
<glyph unicode="+" horiz-adv-x="1925" d="M98 500v82h820v819h90v-819h819v-82h-819v-819h-90v819h-820z" />
<glyph unicode="," horiz-adv-x="573" d="M147 168q0 55 37 87t82 32q80 0 125 -66q39 -53 39 -145q0 -127 -63.5 -241t-153.5 -179l-29 33q76 57 124 139t48 164q0 41 -37 61q-12 8 -69 8q-45 0 -74 32t-29 75z" />
<glyph unicode="-" horiz-adv-x="757" d="M123 459v114h512v-114h-512z" />
<glyph unicode="." horiz-adv-x="573" d="M160 102q0 55 35.5 91t91.5 36q55 0 91 -35.5t36 -91.5q0 -55 -36 -91t-91 -36t-91 36t-36 91z" />
<glyph unicode="/" horiz-adv-x="921" d="M115 -406l610 1901h82l-610 -1901h-82z" />
<glyph unicode="0" d="M100 700q0 186 59.5 352.5t175.5 274t259 107.5t259 -107.5t175 -273.5t59 -353q0 -186 -59 -352t-175 -273.5t-259 -107.5t-259 107.5t-175.5 273.5t-59.5 352zM317 698q0 -96 4.5 -171.5t20.5 -174t44 -163t82 -110.5t126 -46t126 46t81.5 110.5t44 163t20.5 174 t4 171.5q0 98 -4 174t-20.5 174.5t-44 163t-81.5 110.5t-126 46t-126 -46t-82 -110.5t-44 -163t-20.5 -174t-4.5 -174.5z" />
<glyph unicode="1" d="M246 0v66h196q57 0 58 53v1005h-254v74h112q111 0 179.5 59.5t85.5 143.5h65v-1282q0 -53 57 -53h197v-66h-696z" />
<glyph unicode="2" d="M152 1067q0 158 115.5 262.5t289.5 104.5q201 0 330 -110t129 -298q0 -68 -29 -131.5t-84 -120.5t-98 -93t-109 -83l-200 -156q-178 -125 -179 -225q0 -49 64 -49h387q82 0 116 36t46 101l22 121h45l-28 -426h-799q0 51 6 91t25.5 102.5t72 131t132.5 136.5l196 168 q197 166 197 397q0 160 -78 247t-221 87q-100 0 -181 -66.5t-81 -148.5q0 -88 84 -103q66 -10 97.5 -43.5t31.5 -80.5q0 -39 -28 -66t-77 -27q-84 0 -139 66.5t-55 175.5z" />
<glyph unicode="3" d="M147 244q0 74 43 126t113 52q59 0 93 -32t34 -87q0 -43 -25.5 -74.5t-66.5 -31.5q-72 0 -72 -35q0 -129 258 -129q102 0 169 55t90.5 129t23.5 164q0 164 -70.5 246t-173.5 82q-51 0 -98 -19q-68 -23 -105 -22q-31 0 -54 14t-23 43q0 57 77 57q35 0 97 -10q41 -6 112 -6 q98 0 150.5 89t52.5 204q0 133 -61.5 221t-178.5 88q-121 0 -171 -39t-50 -88q0 -45 54 -70q74 -31 73 -100q0 -43 -28.5 -70.5t-81.5 -27.5q-59 0 -103.5 50t-44.5 112q0 143 109.5 221t265.5 78q186 0 300 -99.5t114 -261.5q0 -125 -82 -210t-180 -107v-17 q111 -18 214 -116.5t103 -243.5q0 -186 -144.5 -299t-355.5 -113q-164 0 -270.5 71t-106.5 206z" />
<glyph unicode="4" d="M115 393v74l635 936h73v-936h248v-74h-248v-274q0 -53 56 -53h198v-66h-696v66h199q55 0 55 53v274h-520zM209 467h426v627z" />
<glyph unicode="5" d="M176 268q0 96 49 147.5t115 51.5q55 0 87 -34t32 -85q0 -76 -74 -108q-61 -29 -61 -68q0 -139 225 -139q102 0 169.5 68.5t92.5 168t25 226.5q0 389 -279 389q-111 0 -190 -80q-47 -47 -48 -113q0 -51 -40 -51q-33 0 -33 51v707l45 35q43 -37 126 -61.5t154 -24.5 q195 0 342 86l25 -29q-74 -96 -181.5 -154.5t-228.5 -58.5q-129 0 -209 41v-391l13 -4q104 121 266 120q215 0 335 -126.5t120 -335.5q0 -227 -147.5 -378t-356.5 -151q-170 0 -271.5 86t-101.5 215z" />
<glyph unicode="6" d="M164 643q0 168 43 330t125 268q150 193 350 193q145 0 236 -99q57 -68 57 -161q0 -72 -51 -117q-35 -31 -84 -31q-47 0 -74 37q-16 20 -16 59q0 31 26 62q18 20 39 35q33 25 33 57q0 37 -42 64.5t-128 27.5q-166 0 -252 -186q-35 -76 -53.5 -190.5t-18.5 -192.5v-92 l15 -7q37 78 113.5 128.5t148.5 50.5q137 0 231 -68q80 -57 123 -154.5t43 -207.5q0 -178 -114 -330t-304 -152q-201 0 -323.5 182.5t-122.5 493.5zM381 422q0 -170 53 -279.5t176 -109.5q86 0 142.5 65.5t76 147.5t19.5 176q0 164 -49 272.5t-164 108.5 q-109 0 -181.5 -105.5t-72.5 -275.5z" />
<glyph unicode="7" d="M184 975l29 426h786q0 -106 -31.5 -243.5t-107.5 -250.5l-117 -176q-84 -162 -84 -266q0 -88 13 -154l12 -71q16 -82 16 -144q0 -129 -120 -129q-74 0 -118 53.5t-44 143.5q0 63 25.5 143t48 124t78 140.5t63.5 110.5l164 236q104 150 104 262q0 53 -63 53h-424 q-82 0 -116 -36t-46 -101l-23 -121h-45z" />
<glyph unicode="8" d="M123 356q0 150 84 234t178 110v9l-23 10q-109 45 -166 133t-57 205q0 162 139.5 269.5t313.5 107.5q207 0 319.5 -105.5t112.5 -247.5q0 -111 -70.5 -191.5t-165.5 -123.5v-8l48 -19q242 -98 241 -309q0 -197 -133 -330t-369 -133q-188 0 -320 106.5t-132 282.5zM266 352 q0 -164 99.5 -241.5t232.5 -77.5q113 0 188.5 52t103.5 113.5t28 120.5q0 115 -50.5 170.5t-146.5 94.5l-277 100q-178 -74 -178 -332zM291 1106q0 -86 42 -137t132 -88l264 -101q164 88 164 289q0 127 -88 213t-213 86q-127 0 -214 -71.5t-87 -190.5z" />
<glyph unicode="9" d="M160 952q0 178 113.5 330t304.5 152q201 0 323.5 -182.5t122.5 -493.5q0 -168 -43 -330t-125 -268q-149 -193 -350 -193q-145 0 -236 99q-57 68 -57 161q0 72 51 117q35 31 84 31q47 0 74 -37q16 -20 16 -59q0 -31 -26 -62q-18 -20 -39 -35q-33 -25 -33 -57 q0 -37 42 -64.5t128 -27.5q166 0 252 186q35 76 53.5 190.5t18.5 192.5v92l-15 6q-37 -78 -113.5 -128t-148.5 -50q-137 0 -231 68q-80 57 -123 154.5t-43 207.5zM340 979q0 -164 49 -272.5t164 -108.5q109 0 181.5 105.5t72.5 275.5t-53 279.5t-176 109.5 q-86 0 -142.5 -65.5t-76 -147.5t-19.5 -176z" />
<glyph unicode=":" horiz-adv-x="573" d="M160 102q0 55 35.5 91t91.5 36q55 0 91 -35.5t36 -91.5q0 -55 -36 -91t-91 -36t-91 36t-36 91zM160 831q0 55 35.5 91t91.5 36q55 0 91 -35.5t36 -91.5q0 -55 -36 -91t-91 -36t-91 36t-36 91z" />
<glyph unicode=";" horiz-adv-x="573" d="M147 168q0 55 37 87t82 32q80 0 125 -66q39 -53 39 -145q0 -127 -63.5 -241t-153.5 -179l-29 33q76 57 124 139t48 164q0 41 -37 61q-12 8 -69 8q-45 0 -74 32t-29 75zM160 831q0 55 35.5 91t91.5 36q55 0 91 -35.5t36 -91.5q0 -55 -36 -91t-91 -36t-91 36t-36 91z" />
<glyph unicode="&#x3c;" horiz-adv-x="1925" d="M172 512v57l1548 832l41 -74l-1462 -786l1462 -787l-41 -73z" />
<glyph unicode="=" horiz-adv-x="1925" d="M98 303v82h1729v-82h-1729zM98 692v82h1729v-82h-1729z" />
<glyph unicode="&#x3e;" horiz-adv-x="1925" d="M164 -246l1462 787l-1462 786l41 74l1548 -832v-57l-1548 -831z" />
<glyph unicode="?" horiz-adv-x="962" d="M131 1137q0 121 107.5 202.5t236.5 81.5q168 0 285 -83t117 -228q0 -63 -25 -120.5t-76 -109t-90 -82t-111 -79.5q-182 -125 -182 -244q0 -98 115 -98q53 0 88 37t35 98q0 33 -10 53l36 17q23 -37 23 -72q0 -82 -54.5 -138.5t-117.5 -56.5q-80 0 -132 43t-52 123 q0 61 23.5 104.5t74.5 98.5l156 168q59 66 88.5 123t29.5 135q0 109 -59 179.5t-176 70.5q-94 0 -167 -49t-73 -111q0 -47 12 -59q10 -8 21 -8q14 0 20 2q14 4 37 4q35 0 54.5 -23.5t19.5 -58.5q0 -43 -28.5 -71t-84.5 -28q-57 0 -99 48.5t-42 130.5zM381 102q0 55 36 91 t91 36t91 -35.5t36 -91.5q0 -55 -36 -91t-91 -36t-91 36t-36 91z" />
<glyph unicode="@" horiz-adv-x="1679" d="M98 727q0 317 222.5 542.5t539.5 225.5q334 0 521.5 -205t187.5 -518q0 -80 -29 -165t-83 -162.5t-147 -127t-208 -49.5q-78 0 -132.5 41t-62.5 113l-10 2q-35 -53 -100.5 -104.5t-145.5 -51.5q-92 0 -160.5 65.5t-68.5 188.5q0 129 35 256t102 207q168 201 361 201 q53 0 95 -39t50 -74h10l23 88h147l-172 -635q-23 -100 -1 -154.5t63 -54.5q96 0 165.5 48.5t104.5 128t50 158.5t15 161q0 293 -171 459t-457 166q-268 0 -456.5 -216t-188.5 -536q0 -309 176 -487.5t487 -178.5q180 0 361 119l32 -47q-178 -129 -413 -129q-344 0 -543 210 t-199 554zM561 457q0 -63 30.5 -101.5t67.5 -38.5q104 0 187.5 109t124.5 260l47 174q23 86 -6 181.5t-92 95.5q-82 0 -146.5 -56.5t-126.5 -189.5q-37 -80 -61.5 -202t-24.5 -232z" />
<glyph unicode="A" horiz-adv-x="1564" d="M94 0v66h76q119 0 172 149l444 1243h52l444 -1302q37 -90 123 -90h115v-66h-635v66h135q31 0 51.5 15t20.5 36q0 27 -9 45l-92 268h-473l-47 -133q-29 -82 -29 -123q0 -43 23.5 -75.5t81.5 -32.5h108v-66h-561zM545 504h420l-213 620z" />
<glyph unicode="B" horiz-adv-x="1413" d="M127 0v66h147q55 0 56 55v1216q0 55 -56 56h-147v65h668q188 0 323 -99t135 -249q0 -139 -94 -229t-219 -117v-8q133 -10 245.5 -109.5t112.5 -249.5q0 -186 -139 -291.5t-342 -105.5h-690zM518 121q0 -55 55 -55h222q287 0 286 331q0 332 -286 332h-277v-608zM518 795 h268q166 0 226.5 85t60.5 230q0 123 -77.5 203t-192.5 80h-230q-55 0 -55 -56v-542z" />
<glyph unicode="C" horiz-adv-x="1372" d="M143 741q0 207 68 377t199 273.5t307 103.5q125 0 254 -94q33 -20 53 -39q33 -29 57 -29q16 0 23.5 9.5t17.5 35.5l35 101h51v-570h-51q-68 250 -189.5 385.5t-250.5 135.5q-86 0 -149.5 -33t-102.5 -88.5t-63.5 -145.5t-33 -189.5t-8.5 -232.5t10.5 -235.5t37 -195.5 t69.5 -152.5t111.5 -94t161.5 -34.5q102 0 182 43t128 116.5t74.5 159.5t32.5 182h74q-2 -45 -9 -92t-23.5 -103t-41 -107.5t-63.5 -100.5t-87 -85t-117 -57.5t-150 -21.5q-143 0 -261 67.5t-192 178t-114 248t-40 284.5z" />
<glyph unicode="D" horiz-adv-x="1597" d="M127 0v66h147q55 0 56 55v1216q0 55 -56 56h-147v65h750q260 0 439 -201.5t179 -515.5q0 -315 -180 -528t-438 -213h-750zM518 121q0 -55 55 -55h295q109 0 192 59t129 158.5t67.5 214t21.5 243.5q0 174 -37 314.5t-132 239t-241 98.5h-295q-55 0 -55 -56v-1216z" />
<glyph unicode="E" horiz-adv-x="1413" d="M127 0v66h147q55 0 56 55v1216q0 55 -56 56h-147v65h1143l8 -463h-51l-2 41q-4 43 -24.5 113t-57.5 125q-78 119 -240 119h-330q-55 0 -55 -56v-559h180q55 0 92 25.5t51.5 73t19.5 88.5t5 96h54v-641h-54q0 57 -4 97t-19.5 88t-52 74t-92.5 26h-180v-584q0 -55 55 -55 h328q55 0 119.5 25.5t105.5 78.5q41 57 71 151.5t38 161.5l8 66h51l-24 -549h-1143z" />
<glyph unicode="F" horiz-adv-x="1384" d="M127 1393v65h1143l8 -463h-51l-2 41q-4 43 -24.5 113t-57.5 125q-78 119 -240 119h-330q-55 0 -55 -56v-559h180q55 0 92 25.5t51.5 73t19.5 88.5t5 96h54v-641h-54q0 57 -4 97t-19.5 88t-52 74t-92.5 26h-180v-584q0 -55 55 -55h181v-66h-615v66h135q55 0 56 55v1216 q0 55 -56 56h-147z" />
<glyph unicode="G" horiz-adv-x="1474" d="M143 729q0 207 66.5 380t200 279.5t307.5 106.5q125 0 254 -94q33 -23 53 -39q31 -29 57 -29q16 0 23.5 9.5t17.5 35.5l35 101h51v-570h-51q-68 250 -189.5 385.5t-250.5 135.5q-109 0 -180.5 -49.5t-109.5 -146.5t-52.5 -217t-14.5 -288t14.5 -286.5t52.5 -217 t109.5 -147.5t180.5 -49q115 0 209 115.5t94 242.5v217q0 55 -55 55h-148v66h596v-66h-149q-55 0 -56 -55v-631h-65v187q0 69 -34 69h-1q-35 0 -72 -61q-47 -76 -133 -140.5t-186 -64.5q-174 0 -305 104.5t-200 275.5t-69 386z" />
<glyph unicode="H" horiz-adv-x="1613" d="M127 0v66h147q55 0 56 55v1216q0 55 -56 56h-147v65h594v-65h-148q-55 0 -55 -56v-534h619v534q0 55 -56 56h-147v65h594v-65h-148q-55 0 -55 -56v-1216q0 -55 55 -55h148v-66h-594v66h147q55 0 56 55v608h-619v-608q0 -55 55 -55h148v-66h-594z" />
<glyph unicode="I" horiz-adv-x="806" d="M127 0v66h147q55 0 56 55v1216q0 55 -56 56h-147v65h594v-65h-148q-55 0 -55 -56v-1216q0 -55 55 -55h148v-66h-594z" />
<glyph unicode="J" horiz-adv-x="1105" d="M90 260q0 88 47 137t111 49q59 0 92 -32.5t33 -83.5q0 -41 -29 -71t-70 -30q-33 0 -47 -14t-14 -47q0 -63 65.5 -101t159.5 -38q100 0 155.5 77.5t55.5 186.5v1044q0 55 -55 56h-148v65h594v-65h-147q-55 0 -55 -56v-940q0 -201 -117 -317.5t-283 -116.5q-152 0 -250 80 t-98 217z" />
<glyph unicode="K" horiz-adv-x="1548" d="M127 0v66h147q55 0 56 55v1216q0 55 -56 56h-147v65h584v-65h-138q-55 0 -55 -56v-635l473 484q12 16 21.5 28.5t15.5 24.5t9 28.5t3 39.5q0 37 -26.5 61.5t-65.5 24.5h-55v65h541v-65h-82q-68 0 -185 -121l-344 -348l418 -768q27 -51 59.5 -70.5t94.5 -19.5h67v-66h-618 v66h137q23 0 39 13t16 30q0 31 -14 51l-334 626l-170 -172v-493q0 -55 55 -55h138v-66h-584z" />
<glyph unicode="L" horiz-adv-x="1372" d="M127 0v66h147q55 0 56 55v1216q0 55 -56 56h-147v65h627v-65h-181q-55 0 -55 -56v-1216q0 -55 55 -55h287q53 0 118.5 26.5t106.5 79.5q41 57 71 151.5t38 159.5l8 68h51l-26 -551h-1100z" />
<glyph unicode="M" horiz-adv-x="1716" d="M127 0v66h74q57 0 93 44t36 119v1108q0 55 -56 56h-147v65h434l334 -1128l311 1128h424v-65h-147q-55 0 -56 -56v-1216q0 -55 56 -55h147v-66h-594v66h148q55 0 55 55v1208l-375 -1354h-49l-391 1299h-12v-1045q0 -76 35.5 -119.5t93.5 -43.5h73v-66h-487z" />
<glyph unicode="N" horiz-adv-x="1576" d="M127 0v66h74q59 0 94 44t35 119v1108q-2 55 -56 56h-147v65h387l711 -1143v914q0 76 -35 120t-92 44h-74v65h487v-65h-73q-57 0 -94 -44t-37 -120v-1266h-82l-805 1272h-8v-1006q0 -76 35.5 -119.5t93.5 -43.5h73v-66h-487z" />
<glyph unicode="O" horiz-adv-x="1433" d="M143 729q0 195 73 369t211 285.5t310 111.5t310.5 -111.5t211 -285.5t72.5 -369t-72.5 -369t-211 -285.5t-310.5 -111.5t-310 111.5t-211 286t-73 368.5zM360 729q0 -700 377 -700t377 700t-377 701q-377 0 -377 -701z" />
<glyph unicode="P" horiz-adv-x="1392" d="M127 0v66h147q55 0 56 55v1216q0 55 -56 56h-147v65h684q217 0 354.5 -105.5t137.5 -275.5t-137.5 -279.5t-354.5 -109.5h-293v-567q0 -55 55 -55h181v-66h-627zM518 754h320q111 0 179 95t68 228t-67.5 224.5t-179.5 91.5h-265q-55 0 -55 -56v-583z" />
<glyph unicode="Q" horiz-adv-x="1433" d="M143 729q0 195 73 369t211 285.5t310 111.5t312.5 -111.5t211 -290t70.5 -364.5q0 -219 -91 -407.5t-251 -286.5l17 -111q10 -70 47 -98q39 -31 90 -31q150 0 149 307h39q0 -446 -252 -446q-98 0 -162.5 68.5t-64.5 177.5v78q-60 -17 -115 -17q-172 0 -310 111.5 t-211 286t-73 368.5zM360 729q0 -477 179 -633q-6 23 -7 58q0 78 57.5 137t137.5 59q182 0 242 -221q145 164 145 600q0 700 -377 701q-377 0 -377 -701zM608 147q0 -63 23.5 -90.5t105.5 -27.5q66 0 115 20v57q0 80 -32 129.5t-95 49.5q-49 0 -83 -43t-34 -95z" />
<glyph unicode="R" horiz-adv-x="1466" d="M127 0v66h147q55 0 56 55v1216q0 55 -56 56h-147v65h672q215 0 333.5 -85t118.5 -243q0 -152 -113.5 -243.5t-273.5 -108.5v-8q117 -23 191.5 -107.5t99.5 -289.5q20 -168 38.5 -217.5t68.5 -49.5q88 0 88 222h51q0 -352 -213 -353q-135 0 -187 97q-55 106 -59 362 q-2 137 -49 228.5t-152 91.5h-223v-633q0 -55 55 -55h183v-66h-629zM518 819h199q317 0 317 311q0 125 -66.5 194t-181.5 69h-213q-55 0 -55 -56v-518z" />
<glyph unicode="S" horiz-adv-x="1269" d="M180 627h49q20 -231 168 -414.5t322 -183.5q168 0 244.5 82t76.5 196q0 100 -58 157.5t-171 102.5l-311 125q-315 125 -316 418q0 197 115 291t287 94q82 0 159.5 -38t139.5 -85q49 -37 78 -37q35 0 41 49l8 74h49l20 -532h-49q-49 221 -180 362.5t-283 141.5 q-115 0 -188.5 -75t-73.5 -208q0 -92 47 -143.5t140 -88.5l395 -157q137 -55 205.5 -157.5t68.5 -215.5q0 -170 -112.5 -296t-331.5 -126q-76 0 -159 35t-105.5 51.5t-73.5 52t-61.5 42t-18.5 6.5q-16 0 -31.5 -22t-19.5 -67l-8 -81h-47z" />
<glyph unicode="T" horiz-adv-x="1462" d="M147 909l17 549h1175l17 -549h-51q0 23 -4.5 72t-31 148.5t-71.5 156.5q-84 106 -203 107h-94q-55 0 -55 -56v-1216q0 -55 55 -55h197v-66h-692v66h196q55 0 55 55v1216q0 55 -55 56h-94q-123 0 -203 -107q-45 -57 -71.5 -156.5t-30.5 -148.5t-4 -72h-52z" />
<glyph unicode="U" horiz-adv-x="1646" d="M127 1393v65h596v-65h-150q-55 0 -55 -56v-907q0 -190 92 -295.5t258 -105.5q193 0 300.5 109.5t107.5 267.5v821q0 76 -37 121t-94 45h-72v65h488v-65h-72q-57 0 -94 -45t-37 -121v-801q0 -199 -132.5 -331t-357.5 -132q-141 0 -247.5 44t-168 119t-92 166t-30.5 193 v852q0 55 -56 56h-147z" />
<glyph unicode="V" horiz-adv-x="1581" d="M90 1393v65h655v-65h-135q-29 0 -49 -15.5t-20 -36.5q0 -23 8 -45l350 -985l270 832q25 76 25 143q0 43 -25.5 75t-78.5 32h-111v65h553v-65h-76q-123 0 -172 -150l-416 -1280h-51l-477 1340q-18 51 -47 70.5t-74 19.5h-129z" />
<glyph unicode="W" horiz-adv-x="2187" d="M78 1393v65h606v-65h-98q-29 0 -49.5 -15.5t-20.5 -36.5q0 -16 8 -45l273 -942l247 897l-20 66q-27 76 -145 76h-60v65h606v-65h-79q-104 0 -105 -107q0 -29 12 -63l258 -887l256 807q23 88 23 147q0 41 -37 72t-98 31h-70v65h553v-65h-88q-119 0 -166 -150l-407 -1280 h-52l-335 1139l-324 -1139h-51l-389 1340q-33 90 -121 90h-127z" />
<glyph unicode="X" horiz-adv-x="1536" d="M94 0v66h64q59 0 99 20t58.5 50t44.5 67l347 518l-306 565q-31 57 -62.5 82t-98.5 25h-125v65h635v-65h-123q-37 0 -37 -31q0 -27 16 -53l221 -410l195 291q41 61 41 117q0 35 -27.5 60.5t-72.5 25.5h-64v65h553v-65h-92q-115 0 -180 -101l-314 -471l363 -665 q51 -90 127 -90h127v-66h-635v66h123q55 0 55 43q0 23 -14 51l-262 483l-236 -358q-51 -78 -51 -129q0 -37 18.5 -63.5t55.5 -26.5h110v-66h-553z" />
<glyph unicode="Y" horiz-adv-x="1490" d="M86 1393v65h635v-65h-115q-31 0 -51 -14.5t-20 -37.5q0 -31 10 -45l315 -546l209 401q10 14 22.5 57t12.5 68q0 49 -27.5 83t-85.5 34h-61v65h508v-65h-60q-49 0 -88 -28t-55 -51.5t-43 -70.5l-293 -557v-565q0 -55 55 -55h197v-66h-692v66h196q55 0 56 55v530l-398 652 q-31 53 -55.5 71.5t-64.5 18.5h-107z" />
<glyph unicode="Z" horiz-adv-x="1335" d="M139 0v66l848 1327h-385q-121 0 -223 -119q-68 -80 -108 -198t-40 -142h-51l74 524h950v-65l-839 -1327h452q113 0 211 114q51 59 91 158.5t57 169.5l14 70h51l-49 -578h-1053z" />
<glyph unicode="[" horiz-adv-x="778" d="M246 -381v1851l381 25l8 -53l-197 -33q-45 -8 -45 -66v-1597q0 -57 45 -65l197 -33l-8 -54z" />
<glyph unicode="\" horiz-adv-x="921" d="M115 1495h82l610 -1901h-82z" />
<glyph unicode="]" horiz-adv-x="778" d="M143 -352l197 33q45 8 45 65v1597q0 57 -45 66l-197 33l9 53l380 -25v-1851l-380 -25z" />
<glyph unicode="^" d="M127 688l471 746l463 -746h-98l-365 586l-373 -586h-98z" />
<glyph unicode="_" horiz-adv-x="1064" d="M0 -242h1065v-82h-1065v82z" />
<glyph unicode="`" horiz-adv-x="901" d="M156 1337q0 64 57 64q53 0 100 -66l189 -272l-27 -23l-262 207q-57 43 -57 90z" />
<glyph unicode="a" horiz-adv-x="1024" d="M94 217q0 63 24.5 113.5t56.5 79t87 51t89 31t91 18.5l189 35v174q0 190 -191 190q-70 0 -127 -35.5t-57 -80.5q0 -20 6 -31q8 -16 31 -21q76 -20 76 -79q0 -80 -90 -80q-45 0 -82 34.5t-37 100.5q0 113 88 177t198 64q135 0 233.5 -70.5t98.5 -219.5v-504 q0 -102 64 -103q96 0 96 205h37q0 -291 -164 -291q-174 0 -180 197l-10 4q-31 -72 -99.5 -136.5t-161.5 -64.5q-109 0 -187.5 53.5t-78.5 188.5zM266 211q0 -162 127 -162q49 0 89 23.5t70 69.5t45 80t34 85v195l-178 -39q-98 -20 -142.5 -80.5t-44.5 -171.5z" />
<glyph unicode="b" horiz-adv-x="1048" d="M45 1409v49h299v-655l12 -4q41 68 107.5 113.5t134.5 45.5q162 0 257 -141t95 -350t-99 -350.5t-261 -141.5q-178 0 -291 197l-8 -4l-58 -168h-36v1364q0 45 -45 45h-107zM344 346q0 -125 68.5 -223t181.5 -98q98 0 137 115.5t39 326.5t-39 326.5t-137 115.5 q-96 0 -173 -115.5t-77 -256.5v-191z" />
<glyph unicode="c" horiz-adv-x="892" d="M98 467q0 207 113 349t289 142q139 0 223 -82.5t84 -185.5q0 -63 -33 -99t-80 -36q-41 0 -68.5 26.5t-27.5 63.5q0 72 70 94q33 10 32 37q0 41 -51 87t-149 46q-129 0 -175 -110.5t-46 -331.5t45 -331.5t176 -110.5q125 0 192.5 88t81.5 206h49q-8 -133 -92 -238.5 t-231 -105.5q-178 0 -290 142.5t-112 349.5z" />
<glyph unicode="d" horiz-adv-x="1069" d="M98 467q0 209 95.5 350t257.5 141q68 0 134 -46t107 -113l13 4v561q0 45 -46 45h-147v49h340v-1364q0 -45 45 -45h107v-49h-299v86l-11 6q-100 -117 -235 -117q-162 0 -261.5 141.5t-99.5 350.5zM279 467q0 -211 39 -326.5t137 -115.5q113 0 181.5 98t68.5 223v191 q0 141 -77 256.5t-173 115.5q-98 0 -137 -115.5t-39 -326.5z" />
<glyph unicode="e" horiz-adv-x="942" d="M98 467q0 127 47.5 237.5t136.5 182t201 71.5q74 0 135.5 -30.5t102.5 -81.5t69.5 -116.5t41 -133.5t12.5 -137h-565q0 -100 10 -175t34.5 -135.5t71.5 -92t117 -31.5q41 0 79 12t78 43t67.5 92t37.5 147h49q-12 -152 -92 -248t-223 -96q-184 0 -297 137.5t-113 354.5z M279 516h389q0 74 -10.5 139.5t-31 125t-59.5 94t-92 34.5t-92 -34.5t-61.5 -94t-32.5 -126t-10 -138.5z" />
<glyph unicode="f" horiz-adv-x="675" d="M57 0v49h107q45 0 45 45v783h-152v57h152v141q0 201 94 300.5t219 99.5q88 0 149.5 -54.5t61.5 -154.5q0 -53 -25.5 -84t-70.5 -31q-37 0 -60.5 23.5t-23.5 62.5q0 49 37 74q33 18 33 49q0 65 -102 65h-3q-162 0 -162 -292v-199h193v-57h-193v-783q0 -45 45 -45h148v-49 h-492z" />
<glyph unicode="g" horiz-adv-x="1105" d="M106 -250q0 76 59.5 133.5t141.5 69.5v6q-180 39 -180 152q0 84 64.5 132t158.5 64v6q-207 88 -207 310q0 156 107.5 245.5t257.5 89.5q86 0 169 -38.5t103 -67.5q18 53 59.5 79.5t82.5 26.5q70 0 114.5 -40.5t44.5 -106.5q0 -49 -23.5 -80t-62.5 -31q-33 0 -57.5 17.5 t-24.5 56.5q0 45 35 66q23 14 23 37q0 32 -53 32h-3q-37 0 -66.5 -29.5t-33.5 -68.5q57 -80 57 -188q0 -154 -105 -245t-259 -91q-117 0 -208 -32t-91 -105q0 -68 131 -68q43 0 70 2q25 2 63 2h211q131 0 219 -70.5t88 -208.5q0 -143 -121.5 -218.5t-320.5 -75.5 q-180 0 -311.5 57t-131.5 180zM197 -246q0 -96 108.5 -144t243.5 -48q92 0 169 17.5t138.5 71.5t61.5 140q0 63 -38 109.5t-132 46.5h-228q-82 0 -149.5 -15.5t-120.5 -60.5t-53 -117zM307 623q0 -135 53.5 -211t147.5 -76t147.5 75.5t53.5 211.5q0 135 -53.5 210.5 t-147.5 75.5t-147.5 -75.5t-53.5 -210.5z" />
<glyph unicode="h" horiz-adv-x="1114" d="M57 0v49h115q45 0 45 45v1270q0 45 -45 45h-115v49h308v-713l8 -2q53 102 127.5 158.5t156.5 56.5q102 0 166 -53q94 -76 95 -252v-559q0 -45 45 -45h86v-49h-410v49h86q45 0 45 45v600q0 215 -131 215q-92 0 -183 -117.5t-91 -271.5v-426q0 -45 45 -45h86v-49h-439z" />
<glyph unicode="i" horiz-adv-x="552" d="M78 0v49h86q45 0 45 45v746q0 45 -45 45h-86v49h278v-840q0 -45 45 -45h86v-49h-409zM164 1295q0 45 31 75.5t76 30.5t75.5 -30.5t30.5 -75.5t-30.5 -76t-75.5 -31t-76 31t-31 76z" />
<glyph unicode="j" horiz-adv-x="655" d="M-78 -279q0 53 25.5 84t70.5 31q37 0 60.5 -23.5t23.5 -62.5q0 -49 -36 -74q-33 -18 -33 -49q0 -65 101 -65h3q162 0 162 293v985q0 45 -45 45h-148v49h340v-1022q0 -201 -94 -300t-219 -99q-88 0 -149.5 54t-61.5 154zM254 1295q0 45 31 75.5t76 30.5t75.5 -30.5 t30.5 -75.5t-30.5 -76t-75.5 -31t-76 31t-31 76z" />
<glyph unicode="k" horiz-adv-x="1064" d="M57 0v49h107q45 0 45 45v1270q0 45 -45 45h-107v49h299v-1042l279 342q37 45 37 73q0 53 -70 54h-53v49h418v-49h-66q-55 0 -98 -29t-98 -96l-156 -191l319 -454q14 -20 23.5 -34.5t26 -23t45.5 -8.5h41v-49h-435v49h54q55 0 55 41q0 31 -29 74l-198 287l-95 -115v-242 q0 -45 45 -45h66v-49h-410z" />
<glyph unicode="l" horiz-adv-x="552" d="M57 0v49h107q45 0 45 45v1270q0 45 -45 45h-107v49h299v-1364q0 -45 45 -45h107v-49h-451z" />
<glyph unicode="m" horiz-adv-x="1626" d="M78 0v49h86q45 0 45 45v746q0 45 -45 45h-86v49h278v-180l9 -2q110 206 263 206h1q106 0 170 -53q61 -49 86 -172l8 -2q10 25 28.5 55.5t52.5 73.5t84 70.5t107 27.5q106 0 170 -53q94 -76 95 -252v-559q0 -45 45 -45h86v-49h-410v49h86q45 0 45 45v600q0 88 -31.5 151.5 t-103.5 63.5q-90 0 -172 -116.5t-82 -272.5v-426q0 -45 45 -45h86v-49h-410v49h86q45 0 45 45v600q0 88 -31.5 151.5t-103.5 63.5q-90 0 -172 -116.5t-82 -272.5v-426q0 -45 45 -45h86v-49h-409z" />
<glyph unicode="n" horiz-adv-x="1105" d="M78 0v49h86q45 0 45 45v746q0 45 -45 45h-86v49h278v-189l9 -2q53 102 127.5 158.5t156.5 56.5q102 0 166 -53q94 -76 94 -252v-559q0 -45 45 -45h86v-49h-409v49h86q45 0 45 45v600q0 215 -131 215q-92 0 -183.5 -117.5t-91.5 -271.5v-426q0 -45 45 -45h86v-49h-409z " />
<glyph unicode="o" horiz-adv-x="1015" d="M98 467q0 203 119 347t291 144t291 -144t119 -347t-119 -347.5t-291 -144.5t-291 144.5t-119 347.5zM279 467q0 -442 229 -442t229 442t-229 442t-229 -442z" />
<glyph unicode="p" horiz-adv-x="1060" d="M57 -422h107q45 0 45 45v1217q0 45 -45 45h-107v49h299v-131l13 -4q41 68 107.5 113.5t133.5 45.5q162 0 257.5 -141t95.5 -350t-99.5 -350.5t-261.5 -141.5q-135 0 -235 117l-11 -6v-463q0 -45 45 -45h107v-49h-451v49zM356 346q0 -125 68.5 -223t181.5 -98 q98 0 137 115.5t39 326.5t-38.5 326.5t-137.5 115.5q-96 0 -173 -115.5t-77 -256.5v-191z" />
<glyph unicode="q" horiz-adv-x="1028" d="M98 467q0 209 99.5 350t261.5 141q98 0 169.5 -65.5t108.5 -151.5l15 4l63 189h37v-1311q0 -45 45 -45h107v-49h-451v49h106q45 0 46 45v463l-11 6q-100 -117 -235 -117q-162 0 -261.5 141.5t-99.5 350.5zM279 467q0 -209 39 -325.5t137 -116.5q113 0 181.5 98t68.5 223 v223q0 121 -75 230.5t-175 109.5q-98 0 -137 -116.5t-39 -325.5z" />
<glyph unicode="r" horiz-adv-x="839" d="M78 0v49h86q45 0 45 45v746q0 45 -45 45h-86v49h278v-258l9 -2q35 98 85 166.5t91 89.5q49 28 99 28h3q78 0 117 -50t39 -117q0 -49 -29 -94.5t-86 -45.5q-39 0 -65.5 19.5t-26.5 58.5q0 59 55 90q45 25 45 55q0 35 -57 35q-35 0 -71 -18.5t-78 -78.5t-76 -161 q-53 -152 -54 -286v-271q0 -45 45 -45h86v-49h-409z" />
<glyph unicode="s" horiz-adv-x="888" d="M106 707q0 125 78 188t197 63q109 0 199 -65q45 -33 67 -33q29 0 33 37l4 41h37v-311h-37l-29 71q-45 111 -119.5 161t-156.5 50q-76 0 -125 -37.5t-49 -105.5q0 -47 25.5 -77t68.5 -50q74 -39 86 -43l221 -92q98 -41 148 -98q49 -61 49 -164q0 -137 -78 -202t-205 -65 q-78 0 -135 28t-90 55.5t-55 27.5q-57 0 -72 -70l-8 -41h-37v406h37l69 -148q35 -76 112 -142t181 -66q94 0 140.5 46t46.5 126q0 92 -131 145l-234 94q-238 97 -238 271z" />
<glyph unicode="t" horiz-adv-x="716" d="M57 877v57h45q92 0 144.5 99.5t52.5 219.5v74h57v-393h254v-57h-254v-668q0 -143 109 -143q145 0 145 245h37q0 -47 -2 -77.5t-13 -85t-34 -87t-68 -59.5t-108 -27q-92 0 -152.5 65.5t-60.5 178.5v658h-152z" />
<glyph unicode="u" horiz-adv-x="1093" d="M66 885v49h278v-694q0 -215 131 -215q92 0 183.5 117.5t91.5 271.5v426q0 45 -45 45h-87v49h279v-840q0 -45 45 -45h86v-49h-278v188l-9 2q-53 -102 -127.5 -158.5t-156.5 -56.5q-102 0 -166 54q-94 76 -94 252v559q0 45 -45 45h-86z" />
<glyph unicode="v" horiz-adv-x="1085" d="M37 885v49h442v-49h-57q-25 0 -45.5 -13.5t-20.5 -35.5q0 -35 13 -68l229 -553l166 485q22 60 22 101q0 38 -20.5 61t-52.5 23h-49v49h372v-49h-47q-45 0 -83 -30t-58 -91l-270 -789h-37l-338 807q-10 27 -17.5 40.5t-20.5 30.5t-29.5 24.5t-39.5 7.5h-59z" />
<glyph unicode="w" horiz-adv-x="1589" d="M37 885v49h442v-49h-57q-25 0 -45.5 -13.5t-20.5 -35.5q0 -35 13 -68l229 -553l145 485q8 20 9 43q0 10 -23 68q-35 74 -88 74h-47v49h442v-49h-82q-29 0 -43 -12.5t-15 -21.5t-1 -28q0 -29 10 -55l197 -553l166 485q23 63 22 105q0 80 -73 80h-50v49h373v-49h-47 q-100 0 -141 -121l-279 -789h-37l-245 672l-213 -672h-37l-330 789q-8 18 -15.5 35.5t-14.5 31t-15 23.5t-19.5 17.5t-27 10.5t-35.5 3h-47z" />
<glyph unicode="x" horiz-adv-x="1064" d="M70 0v49h53q29 0 51.5 11.5t39.5 27.5t27.5 29.5t30.5 44.5l187 278l-250 400q-10 14 -15.5 24t-18.5 15.5t-36 5.5h-61v49h405v-49h-49q-41 0 -41 -41q0 -23 13 -43l141 -230l135 201q18 27 18 66q0 23 -15 35t-34 12h-49v49h356v-49h-51q-82 0 -141 -90l-186 -275 l260 -418q12 -20 20 -29.5t28.5 -16.5t51.5 -7h47v-49h-426v49h62q47 0 47 35q0 18 -15 43l-163 262l-140 -207q-31 -49 -30 -71q0 -61 51 -62h37v-49h-340z" />
<glyph unicode="y" horiz-adv-x="1085" d="M37 885v49h463v-49h-66q-25 0 -45 -13.5t-20 -35.5q0 -35 12 -68l213 -629l170 561q22 60 22 101q0 39 -20.5 61.5t-52.5 22.5h-49v49h372v-49h-47q-100 0 -141 -121l-330 -1049q-23 -76 -86.5 -139t-157.5 -63q-80 0 -131 51q-57 53 -57 129q0 57 33 86q31 31 69 31 q47 0 71 -30t24 -75q0 -25 -17 -57q-12 -20 -12 -39q0 -31 41 -31q61 0 103 48t63 114l55 178l-291 846q-16 45 -27.5 66.5t-35 38t-58.5 16.5h-67z" />
<glyph unicode="z" horiz-adv-x="901" d="M82 0v53l532 832h-249q-129 0 -181 -103q-31 -61 -45 -135l-16 -74h-41l12 361h688v-66l-530 -819h260q129 0 180 103q31 61 45 135l17 73h41l-13 -360h-700z" />
<glyph unicode="{" horiz-adv-x="860" d="M213 528v37q115 0 166 29t51 131q0 63 -37 206.5t-37 219.5q0 244 308 344l24 -49q-51 -18 -80.5 -31.5t-63.5 -36t-49.5 -53.5t-15.5 -72q0 -74 37 -211t37 -211q0 -221 -193 -282v-4q193 -61 193 -295q0 -74 -37 -205t-37 -205q0 -78 52.5 -116.5t156.5 -75.5l-24 -49 q-307 100 -308 344q0 76 37 213t37 200q0 102 -53 137t-164 35z" />
<glyph unicode="|" horiz-adv-x="581" d="M246 -406v1901h90v-1901h-90z" />
<glyph unicode="}" horiz-adv-x="860" d="M172 -352q51 18 81 31.5t63.5 36t49 53t15.5 71.5q0 74 -37 211t-37 211q0 221 193 283v4q-193 61 -193 282q0 74 37 211.5t37 210.5q0 78 -52.5 117t-156.5 76l25 49q307 -100 307 -344q0 -76 -37 -219.5t-37 -206.5q0 -102 51 -131t166 -29v-37q-115 0 -166 -28.5 t-51 -130.5q0 -63 37 -207t37 -219q0 -244 -307 -344z" />
<glyph unicode="~" horiz-adv-x="1351" d="M98 518q0 82 61.5 142.5t172.5 60.5q129 0 426 -131q254 -115 344 -115q33 0 57.5 25.5t24.5 68.5q0 78 -86 123l24 43q131 -59 131 -184q0 -82 -61.5 -142.5t-171.5 -60.5q-61 0 -142 22.5t-133.5 44t-150.5 64.5q-39 16 -76 32.5t-74.5 32t-70.5 27t-65.5 17.5t-57.5 6 q-33 0 -57.5 -25.5t-24.5 -68.5q0 -78 86 -123l-25 -43q-131 59 -131 184z" />
<glyph unicode="&#xa2;" d="M229 467q0 193 103.5 333t261.5 156v224h65v-224q127 -8 203 -89t76 -177q0 -63 -33 -99t-80 -36q-41 0 -68.5 26.5t-27.5 63.5q0 72 70 94q33 10 32 37q0 39 -44 82t-128 49v-882q115 6 173.5 92t72.5 202h49q-6 -82 -34.5 -154.5t-96 -128.5t-164.5 -61v-221h-65v223 q-172 18 -268.5 155.5t-96.5 334.5zM410 467q0 -156 42 -282t142 -154v874q-96 -25 -140 -153.5t-44 -284.5z" />
<glyph unicode="&#xa3;" horiz-adv-x="1474" d="M131 135q0 72 60.5 118t127.5 46q104 0 228 -59q18 80 18 202q0 86 -14 281q-106 18 -133 18q-43 0 -68.5 -5t-43 -15t-44.5 -25l-29 45q66 57 168 58q39 0 146 -21q-2 29 -2 103q0 231 132 392t314 161q106 0 177 -50.5t93.5 -103.5t22.5 -98q0 -70 -30.5 -112 t-92.5 -42q-43 0 -72.5 26.5t-29.5 69.5q0 66 51 93q27 14 37 24t10 35q0 39 -40 71.5t-126 32.5q-100 0 -180 -89t-80 -263v-283q86 -16 125 -16q33 0 56.5 4t40 10.5t30.5 14.5l29 16l28 -45q-57 -57 -168 -57q-35 0 -141 18v-133q0 -221 -98 -362q160 -96 389 -97 q92 0 159.5 77t88.5 169l37 -14q-72 -367 -367 -367q-123 0 -369 154q-45 -51 -111.5 -96.5t-127.5 -45.5q-84 0 -142.5 40t-58.5 120zM188 135q1 -110 144 -110q49 0 100 38.5t82 98.5q-18 12 -35.5 24.5t-38 23.5t-40 20.5t-44 14.5t-49.5 5q-51 0 -85 -34t-34 -81z" />
<glyph unicode="&#xa5;" d="M29 1335v66h467v-66h-68q-55 0 -55 -35q0 -18 18 -55l246 -500l223 406q41 74 41 113q0 27 -15.5 49t-54.5 22h-86v66h410v-66h-57q-55 0 -74.5 -26.5t-75.5 -126.5l-280 -506h286v-66h-286v-123h286v-65h-286v-299q0 -57 57 -57h152v-66h-598v66h151q57 0 57 57v299 h-286v65h286v123h-286v66h274l-285 579q-20 41 -38 60q-18 20 -52 20h-71z" />
<glyph unicode="&#xa8;" horiz-adv-x="901" d="M152 1221q0 45 30.5 75.5t75.5 30.5t76 -30.5t31 -75.5t-31 -76t-76 -31t-75.5 31t-30.5 76zM537 1221q0 45 30.5 75.5t75.5 30.5t76 -30.5t31 -75.5t-31 -76t-76 -31t-75.5 31t-30.5 76z" />
<glyph unicode="&#xa9;" horiz-adv-x="1679" d="M98 729q0 319 214 542.5t528 223.5q313 0 527 -223t214 -543q0 -319 -214 -542.5t-527 -223.5t-527.5 223.5t-214.5 542.5zM156 729q0 -291 198.5 -500t485.5 -209t485.5 209t198.5 500t-199 500t-485 209q-287 0 -485.5 -209t-198.5 -500zM451 692q0 229 111.5 372.5 t305.5 143.5q90 0 168 -65q20 -18 41 -19q18 0 31.5 23.5t13.5 48.5h37v-336h-37q-12 117 -94 208t-160 91q-238 0 -237 -467q0 -66 11 -133t35.5 -134t73 -109t113.5 -42q125 0 186.5 86t75.5 209h50q-8 -135 -87.5 -239.5t-224.5 -104.5q-195 0 -304 141.5t-109 325.5z " />
<glyph unicode="&#xab;" horiz-adv-x="983" d="M221 467q0 133 73 241.5t165 168.5l30 -31q-154 -137 -153 -379q0 -242 153 -379l-30 -31q-92 59 -165 168t-73 242zM543 467q0 125 56 222t122 151l29 -29q-109 -137 -109 -344t109 -344l-29 -29q-66 53 -122 150.5t-56 222.5z" />
<glyph unicode="&#xad;" horiz-adv-x="757" d="M123 459v114h512v-114h-512z" />
<glyph unicode="&#xae;" horiz-adv-x="1679" d="M98 729q0 319 214 542.5t528 223.5q313 0 527 -223t214 -543q0 -319 -214 -542.5t-527 -223.5t-527.5 223.5t-214.5 542.5zM156 729q0 -291 198.5 -500t485.5 -209t485.5 209t198.5 500t-199 500t-485 209q-287 0 -485.5 -209t-198.5 -500zM410 266v49h86q45 0 45 45v746 q0 45 -45 45h-86v49h467q129 0 214 -58.5t85 -166.5q0 -57 -25.5 -100.5t-65.5 -67t-71 -33.5t-59 -16v-9q166 -35 186 -235q6 -49 8 -94t18.5 -75t49.5 -30q49 0 67.5 60.5t18.5 123.5h37q0 -39 -6.5 -75.5t-21.5 -81.5t-53 -73t-93 -28q-63 0 -105 29q-76 53 -76 178v111 q0 96 -42 135t-95 39h-160v-373q0 -45 45 -45h91v-49h-414zM688 782h158q68 0 109 47t41 133q0 188 -152 189h-111q-45 0 -45 -45v-324z" />
<glyph unicode="&#xb4;" horiz-adv-x="901" d="M399 1063l189 272q47 66 100 66q57 0 57 -64q0 -47 -57 -90l-262 -207z" />
<glyph unicode="&#xb8;" horiz-adv-x="901" d="M233 -360l25 32q23 -18 54.5 -33.5t72.5 -15.5q55 0 91 25.5t36 79.5q0 55 -20 79q-23 27 -70 37l-70 15l49 141h52l-37 -109l49 -10q84 -18 131 -60t47 -112q0 -61 -59.5 -102t-173.5 -41q-47 0 -97.5 22.5t-79.5 51.5z" />
<glyph unicode="&#xbb;" horiz-adv-x="983" d="M233 123q109 137 109 344t-109 344l29 29q66 -53 122 -150.5t56 -222.5t-56 -222.5t-122 -150.5zM494 88q154 137 153 379q0 242 -153 379l30 31q92 -59 165 -168t73 -242t-73 -241.5t-165 -168.5z" />
<glyph unicode="&#xd3;" horiz-adv-x="1433" d="M143 729q0 195 73 369t211 285.5t310 111.5t310.5 -111.5t211 -285.5t72.5 -369t-72.5 -369t-211 -285.5t-310.5 -111.5t-310 111.5t-211 286t-73 368.5zM360 729q0 -700 377 -700t377 700t-377 701q-377 0 -377 -701zM686 1583l189 272q47 66 100 66q57 0 57 -63 q0 -47 -57 -91l-262 -206z" />
<glyph unicode="&#xf3;" horiz-adv-x="1015" d="M98 467q0 203 119 347t291 144t291 -144t119 -347t-119 -347.5t-291 -144.5t-291 144.5t-119 347.5zM279 467q0 -442 229 -442t229 442t-229 442t-229 -442zM456 1063l189 272q47 66 100 66q57 0 57 -64q0 -47 -57 -90l-262 -207z" />
<glyph unicode="&#x104;" horiz-adv-x="1564" d="M94 0v66h76q117 0 172 149l440 1243h56l444 -1302q37 -90 123 -90h115v-66h-258q-197 -98 -197 -276q0 -51 28.5 -86t77.5 -35q76 0 127 55l25 -18q-68 -127 -203 -127q-90 0 -142 50t-52 134q0 164 229 293l-4 10h-266v66h135q31 0 51.5 15t20.5 36q0 27 -9 45l-92 268 h-473l-47 -133q-29 -82 -29 -123q0 -43 23.5 -75.5t81.5 -32.5h108v-66h-561zM545 504h420l-213 620z" />
<glyph unicode="&#x105;" horiz-adv-x="1024" d="M94 217q0 63 24.5 113.5t56.5 79t87 51t89 31t91 18.5l189 35v174q0 190 -191 190q-70 0 -127 -35.5t-57 -80.5q0 -20 6 -31q8 -16 31 -21q76 -20 76 -79q0 -80 -90 -80q-45 0 -82 34.5t-37 100.5q0 113 88 177t198 64q135 0 233.5 -70.5t98.5 -219.5v-504 q0 -102 64 -103q96 0 96 205h37q0 -244 -127 -291q-74 -29 -123 -95t-49 -144q0 -96 90 -96q59 0 119 69l28 -20q-76 -139 -190 -140q-68 0 -115 44.5t-47 115.5q0 137 201 266v5q-125 29 -131 192l-10 4q-31 -72 -99.5 -136.5t-161.5 -64.5q-109 0 -187.5 53.5t-78.5 188.5 zM266 211q0 -162 127 -162q49 0 89 23.5t70 69.5t45 80t34 85v195l-178 -39q-98 -20 -142.5 -80.5t-44.5 -171.5z" />
<glyph unicode="&#x106;" horiz-adv-x="1372" d="M143 741q0 207 68 377t199 273.5t307 103.5q125 0 254 -94q33 -20 53 -39q33 -29 57 -29q16 0 23.5 9.5t17.5 35.5l35 101h51v-570h-51q-68 250 -189.5 385.5t-250.5 135.5q-86 0 -149.5 -33t-102.5 -88.5t-63.5 -145.5t-33 -189.5t-8.5 -232.5t10.5 -235.5t37 -195.5 t69.5 -152.5t111.5 -94t161.5 -34.5q102 0 182 43t128 116.5t74.5 159.5t32.5 182h74q-2 -45 -9 -92t-23.5 -103t-41 -107.5t-63.5 -100.5t-87 -85t-117 -57.5t-150 -21.5q-143 0 -261 67.5t-192 178t-114 248t-40 284.5zM682 1583l189 272q47 66 100 66q57 0 57 -63 q0 -47 -57 -91l-262 -206z" />
<glyph unicode="&#x107;" horiz-adv-x="892" d="M98 467q0 207 113 349t289 142q139 0 223 -82.5t84 -185.5q0 -63 -33 -99t-80 -36q-41 0 -68.5 26.5t-27.5 63.5q0 72 70 94q33 10 32 37q0 41 -51 87t-149 46q-129 0 -175 -110.5t-46 -331.5t45 -331.5t176 -110.5q125 0 192.5 88t81.5 206h49q-8 -133 -92 -238.5 t-231 -105.5q-178 0 -290 142.5t-112 349.5zM456 1063l189 272q47 66 100 66q57 0 57 -64q0 -47 -57 -90l-262 -207z" />
<glyph unicode="&#x118;" horiz-adv-x="1413" d="M127 0v66h147q55 0 56 55v1216q0 55 -56 56h-147v65h1143l8 -463h-51l-2 41q-4 43 -24.5 113t-57.5 125q-78 119 -240 119h-330q-55 0 -55 -56v-559h180q55 0 92 25.5t51.5 73t19.5 88.5t5 96h54v-641h-54q0 57 -4 97t-19.5 88t-52 74t-92.5 26h-180v-584q0 -55 55 -55 h328q55 0 119.5 25.5t105.5 78.5q41 57 71 151.5t38 161.5l8 66h51l-24 -549h-189q-86 -43 -141 -113.5t-55 -162.5q0 -51 28.5 -86t77.5 -35q76 0 127 55l25 -18q-68 -127 -203 -127q-90 0 -142.5 50t-52.5 134q0 88 64.5 164t165.5 129l-4 10h-844z" />
<glyph unicode="&#x119;" horiz-adv-x="942" d="M98 467q0 127 47.5 237.5t136.5 182t201 71.5q74 0 135.5 -30.5t102.5 -81.5t69.5 -116.5t41 -133.5t12.5 -137h-565q0 -100 10 -175t34.5 -135.5t71.5 -92t117 -31.5q41 0 79 12t78 43t67.5 92t37.5 147h49q-6 -94 -40.5 -168.5t-96.5 -119.5q-68 -51 -107.5 -88 t-71.5 -92.5t-32 -114.5q0 -45 22.5 -70.5t67.5 -25.5q37 0 63.5 16t55.5 53l29 -20q-31 -57 -81 -98.5t-110 -41.5q-68 0 -115 44.5t-47 115.5q0 127 187 264v4q-12 -2 -39 -2q-184 0 -297 137.5t-113 354.5zM279 516h389q0 74 -10.5 139.5t-31 125t-59.5 94t-92 34.5 t-92 -34.5t-61.5 -94t-32.5 -126t-10 -138.5z" />
<glyph unicode="&#x141;" horiz-adv-x="1415" d="M127 0v66h147q55 0 56 55v518l-154 -90l-37 65l191 111v612q0 55 -56 56h-147v65h627v-65h-181q-55 0 -55 -56v-501l281 163l37 -65l-318 -184v-629q0 -55 55 -55h287q53 0 118.5 26.5t106.5 79.5q41 57 71 151.5t38 159.5l8 68h51l-26 -551h-1100z" />
<glyph unicode="&#x142;" horiz-adv-x="565" d="M57 0v49h107q45 0 45 45v578l-123 -70l-29 49l152 86v570q0 45 -45 45h-107v49h299v-580l156 88l29 -49l-185 -104v-662q0 -45 45 -45h107v-49h-451z" />
<glyph unicode="&#x143;" horiz-adv-x="1576" d="M127 0v66h74q59 0 94 44t35 119v1108q-2 55 -56 56h-147v65h387l711 -1143v914q0 76 -35 120t-92 44h-74v65h487v-65h-73q-57 0 -94 -44t-37 -120v-1266h-82l-805 1272h-8v-1006q0 -76 35.5 -119.5t93.5 -43.5h73v-66h-487zM800 1583l189 272q47 66 100 66q57 0 57 -63 q0 -47 -57 -91l-262 -206z" />
<glyph unicode="&#x144;" horiz-adv-x="1105" d="M78 0v49h86q45 0 45 45v746q0 45 -45 45h-86v49h278v-189l9 -2q53 102 127.5 158.5t156.5 56.5q102 0 166 -53q94 -76 94 -252v-559q0 -45 45 -45h86v-49h-409v49h86q45 0 45 45v600q0 215 -131 215q-92 0 -183.5 -117.5t-91.5 -271.5v-426q0 -45 45 -45h86v-49h-409z M514 1063l189 272q47 66 100 66q57 0 57 -64q0 -47 -57 -90l-262 -207z" />
<glyph unicode="&#x15a;" horiz-adv-x="1269" d="M180 627h49q20 -231 168 -414.5t322 -183.5q168 0 244.5 82t76.5 196q0 100 -58 157.5t-171 102.5l-311 125q-315 125 -316 418q0 197 115 291t287 94q82 0 159.5 -38t139.5 -85q49 -37 78 -37q35 0 41 49l8 74h49l20 -532h-49q-49 221 -180 362.5t-283 141.5 q-115 0 -188.5 -75t-73.5 -208q0 -92 47 -143.5t140 -88.5l395 -157q137 -55 205.5 -157.5t68.5 -215.5q0 -170 -112.5 -296t-331.5 -126q-76 0 -159 35t-105.5 51.5t-73.5 52t-61.5 42t-18.5 6.5q-16 0 -31.5 -22t-19.5 -67l-8 -81h-47zM546 1583l189 272q47 66 100 66 q57 0 57 -63q0 -47 -57 -91l-262 -206z" />
<glyph unicode="&#x15b;" horiz-adv-x="888" d="M106 707q0 125 78 188t197 63q109 0 199 -65q45 -33 67 -33q29 0 33 37l4 41h37v-311h-37l-29 71q-45 111 -119.5 161t-156.5 50q-76 0 -125 -37.5t-49 -105.5q0 -47 25.5 -77t68.5 -50q74 -39 86 -43l221 -92q98 -41 148 -98q49 -61 49 -164q0 -137 -78 -202t-205 -65 q-78 0 -135 28t-90 55.5t-55 27.5q-57 0 -72 -70l-8 -41h-37v406h37l69 -148q35 -76 112 -142t181 -66q94 0 140.5 46t46.5 126q0 92 -131 145l-234 94q-238 97 -238 271zM370 1063l189 272q47 66 100 66q57 0 57 -64q0 -47 -57 -90l-262 -207z" />
<glyph unicode="&#x179;" horiz-adv-x="1335" d="M139 0v66l848 1327h-385q-121 0 -223 -119q-68 -80 -108 -198t-40 -142h-51l74 524h950v-65l-839 -1327h452q113 0 211 114q51 59 91 158.5t57 169.5l14 70h51l-49 -578h-1053zM686 1583l189 272q47 66 100 66q57 0 57 -63q0 -47 -57 -91l-262 -206z" />
<glyph unicode="&#x17a;" horiz-adv-x="901" d="M82 0v53l532 832h-249q-129 0 -181 -103q-31 -61 -45 -135l-16 -74h-41l12 361h688v-66l-530 -819h260q129 0 180 103q31 61 45 135l17 73h41l-13 -360h-700zM399 1063l189 272q47 66 100 66q57 0 57 -64q0 -47 -57 -90l-262 -207z" />
<glyph unicode="&#x17b;" horiz-adv-x="1335" d="M139 0v66l848 1327h-385q-121 0 -223 -119q-68 -80 -108 -198t-40 -142h-51l74 524h950v-65l-839 -1327h452q113 0 211 114q51 59 91 158.5t57 169.5l14 70h51l-49 -578h-1053zM631 1741q0 45 31 75.5t76 30.5t75.5 -30.5t30.5 -75.5t-30.5 -76t-75.5 -31t-76 31t-31 76z " />
<glyph unicode="&#x17c;" horiz-adv-x="901" d="M82 0v53l532 832h-249q-129 0 -181 -103q-31 -61 -45 -135l-16 -74h-41l12 361h688v-66l-530 -819h260q129 0 180 103q31 61 45 135l17 73h41l-13 -360h-700zM344 1221q0 45 31 75.5t76 30.5t75.5 -30.5t30.5 -75.5t-30.5 -76t-75.5 -31t-76 31t-31 76z" />
<glyph unicode="&#x2c6;" horiz-adv-x="901" d="M182 1067q154 98 228 309h82q74 -211 227 -309l-19 -27q-139 72 -249 189q-111 -117 -250 -189z" />
<glyph unicode="&#x2da;" horiz-adv-x="901" d="M252 1225q0 82 57.5 139t141.5 57t141 -57t57 -139q0 -84 -58 -142.5t-140 -58.5t-140.5 58.5t-58.5 142.5zM301 1225q0 -66 43.5 -109t106.5 -43t106 43t43 109q0 63 -42 105t-107 42q-66 0 -108 -42t-42 -105z" />
<glyph unicode="&#x2dc;" horiz-adv-x="901" d="M168 1139q0 80 43 136t121 56q66 0 149.5 -41t132.5 -41q59 0 74 82h45q0 -80 -43 -136t-121 -56q-66 0 -149.5 41t-132.5 41q-59 0 -74 -82h-45z" />
<glyph unicode="&#x2000;" horiz-adv-x="960" />
<glyph unicode="&#x2001;" horiz-adv-x="1921" />
<glyph unicode="&#x2002;" horiz-adv-x="960" />
<glyph unicode="&#x2003;" horiz-adv-x="1921" />
<glyph unicode="&#x2004;" horiz-adv-x="640" />
<glyph unicode="&#x2005;" horiz-adv-x="480" />
<glyph unicode="&#x2006;" horiz-adv-x="320" />
<glyph unicode="&#x2007;" horiz-adv-x="320" />
<glyph unicode="&#x2008;" horiz-adv-x="240" />
<glyph unicode="&#x2009;" horiz-adv-x="384" />
<glyph unicode="&#x200a;" horiz-adv-x="106" />
<glyph unicode="&#x2010;" horiz-adv-x="757" d="M123 459v114h512v-114h-512z" />
<glyph unicode="&#x2011;" horiz-adv-x="757" d="M123 459v114h512v-114h-512z" />
<glyph unicode="&#x2012;" horiz-adv-x="757" d="M123 459v114h512v-114h-512z" />
<glyph unicode="&#x2013;" horiz-adv-x="1269" d="M123 500v73h1024v-73h-1024z" />
<glyph unicode="&#x2014;" horiz-adv-x="2048" d="M123 479v74h1802v-74h-1802z" />
<glyph unicode="&#x2018;" horiz-adv-x="573" d="M143 1075q0 127 63.5 241t153.5 179l29 -33q-76 -57 -124 -139t-48 -164q0 -41 37 -61q12 -8 70 -8q45 0 73.5 -32t28.5 -75q0 -55 -37 -87t-82 -32q-80 0 -125 66q-39 53 -39 145z" />
<glyph unicode="&#x2019;" horiz-adv-x="573" d="M147 1376q0 55 37 87t82 32q80 0 125 -66q39 -53 39 -145q0 -127 -63.5 -241t-153.5 -179l-29 33q76 57 124 139t48 164q0 41 -37 61q-12 8 -69 8q-45 0 -74 32t-29 75z" />
<glyph unicode="&#x201a;" horiz-adv-x="573" d="M147 168q0 55 37 87t82 32q80 0 125 -66q39 -53 39 -145q0 -127 -63.5 -241t-153.5 -179l-29 33q76 57 124 139t48 164q0 41 -37 61q-12 8 -69 8q-45 0 -74 32t-29 75z" />
<glyph unicode="&#x201c;" horiz-adv-x="954" d="M143 1075q0 127 63.5 241t153.5 179l29 -33q-76 -57 -124 -139t-48 -164q0 -41 37 -61q12 -8 70 -8q45 0 73.5 -32t28.5 -75q0 -55 -37 -87t-82 -32q-80 0 -125 66q-39 53 -39 145zM524 1075q0 127 63.5 241t153.5 179l29 -33q-76 -57 -124 -139t-48 -164q0 -41 37 -61 q12 -8 70 -8q45 0 73.5 -32t28.5 -75q0 -55 -37 -87t-82 -32q-80 0 -125 66q-39 53 -39 145z" />
<glyph unicode="&#x201d;" horiz-adv-x="954" d="M147 1376q0 55 37 87t82 32q80 0 125 -66q39 -53 39 -145q0 -127 -63.5 -241t-153.5 -179l-29 33q76 57 124 139t48 164q0 41 -37 61q-12 8 -69 8q-45 0 -74 32t-29 75zM528 1376q0 55 37 87t82 32q80 0 125 -66q39 -53 39 -145q0 -127 -63.5 -241t-153.5 -179l-29 33 q76 57 124 139t48 164q0 41 -37 61q-12 8 -69 8q-45 0 -74 32t-29 75z" />
<glyph unicode="&#x201e;" horiz-adv-x="954" d="M147 168q0 55 37 87t82 32q80 0 125 -66q39 -53 39 -145q0 -127 -63.5 -241t-153.5 -179l-29 33q76 57 124 139t48 164q0 41 -37 61q-12 8 -69 8q-45 0 -74 32t-29 75zM528 168q0 55 37 87t82 32q80 0 125 -66q39 -53 39 -145q0 -127 -63.5 -241t-153.5 -179l-29 33 q76 57 124 139t48 164q0 41 -37 61q-12 8 -69 8q-45 0 -74 32t-29 75z" />
<glyph unicode="&#x2026;" horiz-adv-x="1720" d="M160 102q0 55 35.5 91t91.5 36q55 0 91 -35.5t36 -91.5q0 -55 -36 -91t-91 -36t-91 36t-36 91zM733 102q0 55 35.5 91t91.5 36q55 0 91 -35.5t36 -91.5q0 -55 -36 -91t-91 -36t-91 36t-36 91zM1307 102q0 55 35.5 91t91.5 36q55 0 91 -35.5t36 -91.5q0 -55 -36 -91 t-91 -36t-91 36t-36 91z" />
<glyph unicode="&#x202f;" horiz-adv-x="384" />
<glyph unicode="&#x2039;" horiz-adv-x="675" d="M221 467q0 133 73 241.5t165 168.5l30 -31q-154 -137 -153 -379q0 -242 153 -379l-30 -31q-92 59 -165 168t-73 242z" />
<glyph unicode="&#x203a;" horiz-adv-x="675" d="M186 88q154 137 154 379t-154 379l31 31q92 -59 165 -168t73 -242t-73 -241.5t-165 -168.5z" />
<glyph unicode="&#x205f;" horiz-adv-x="480" />
<glyph unicode="&#x20ac;" d="M70 586l12 65h63q-2 14 -2 47q0 45 2 68h-75l12 65h70q35 260 183 431.5t357 171.5q127 0 242 -95q55 -43 76 -43q25 0 34 35l23 88h47v-450h-49q-43 176 -145.5 287.5t-227.5 111.5q-145 0 -229 -141.5t-96 -395.5h503l-14 -65h-494q-2 -29 -2 -68q0 -27 2 -47h474 l-13 -65h-458q0 -238 97 -395.5t257 -157.5q137 0 223 92t113 225h53q-12 -70 -40 -132t-72 -121.5t-116.5 -94.5t-160.5 -35q-242 0 -393.5 173t-175.5 446h-80z" />
<glyph unicode="&#x2122;" horiz-adv-x="2007" d="M61 1098l15 360h727l12 -360h-41l-16 73q-14 74 -45 136q-27 51 -61 76.5t-95 25.5q-45 0 -45 -45v-651q0 -45 45 -45h86v-50h-410v50h86q45 0 46 45v651q0 45 -46 45q-61 0 -95 -25.5t-60 -76.5q-31 -61 -45 -136l-17 -73h-41zM954 618v50h41q45 0 61.5 27.5t16.5 82.5 v586q0 45 -45 45h-74v49h283l209 -604l190 604h293v-49h-74q-45 0 -45 -45v-651q0 -45 45 -45h74v-50h-385v50h74q45 0 45 45v639l-246 -750h-37l-250 717v-541q0 -55 16.5 -82.5t61.5 -27.5h41v-50h-295z" />
<glyph unicode="&#xe000;" horiz-adv-x="931" d="M0 0v932h932v-932h-932z" />
</font>
</defs>
</svg>
